<?xml version="1.0" encoding="utf-8"?>
<!-- Generator: Adobe Illustrator 19.1.0, SVG Export Plug-In . SVG Version: 6.00 Build 0)  -->
<svg version="1.1" id="Layer_1" xmlns="http://www.w3.org/2000/svg" xmlns:xlink="http://www.w3.org/1999/xlink" x="0px" y="0px"
	 viewBox="0 0 91.2 58" style="enable-background:new 0 0 91.2 58;" xml:space="preserve">
<style type="text/css">
	.st0{fill:#444445;}
	.st1{fill:#53B448;}
	.st2{fill:#818282;}
	.st3{fill:#DC4E41;}
	.st4{fill:#FFFFFF;}
</style>
<g>
	<g>
		<path class="st4" d="M0,29C-0.5,14.1,12.5,0.3,27.5,0.1c7.6-0.7,15,2.3,20.8,7.1c-2.4,2.6-4.8,5.2-7.3,7.6
			c-5.1-3.1-11.2-5.4-17.1-3.3c-9.6,2.7-15.4,14-11.8,23.4c2.9,9.8,14.8,15.2,24.2,11c4.8-1.7,8-6.2,9.4-11
			c-5.5-0.1-11.1,0-16.6-0.2c0-3.3,0-6.6,0-9.9c9.2,0,18.5,0,27.7,0c0.6,8.1-0.6,16.7-5.9,23.2c-7.2,9.2-20.4,12-31.2,8.3
			C8.1,52.7-0.2,41.1,0,29z"/>
		<path class="st4" d="M74.6,16.6c2.7,0,5.5,0,8.2,0c0,2.8,0,5.5,0.1,8.3c2.8,0,5.5,0,8.3,0.1c0,2.8,0,5.5,0,8.2c-2.8,0-5.5,0-8.3,0
			c0,2.8,0,5.5-0.1,8.3c-2.8,0-5.5,0-8.2,0c0-2.8,0-5.5-0.1-8.3c-2.8,0-5.5,0-8.3-0.1c0-2.8,0-5.5,0-8.2c2.8,0,5.5,0,8.3-0.1
			C74.6,22.1,74.6,19.3,74.6,16.6z"/>
	</g>
</g>
</svg>
