<?xml version="1.0" encoding="utf-8"?>
<!-- Generator: Adobe Illustrator 19.1.0, SVG Export Plug-In . SVG Version: 6.00 Build 0)  -->
<!DOCTYPE svg PUBLIC "-//W3C//DTD SVG 1.1//EN" "http://www.w3.org/Graphics/SVG/1.1/DTD/svg11.dtd">
<svg version="1.1" xmlns="http://www.w3.org/2000/svg" xmlns:xlink="http://www.w3.org/1999/xlink" x="0px" y="0px"
	 viewBox="0 0 560 560" style="enable-background:new 0 0 560 560;" xml:space="preserve">
<style type="text/css">
	.st0{display:none;fill:#ECF0F1;}
	.st1{clip-path:url(#SVGID_2_);}
	.st2{clip-path:url(#SVGID_4_);fill:#243743;}
	.st3{clip-path:url(#SVGID_2_);fill:#1EE26D;stroke:#1EE26D;stroke-width:1.000000e-002;stroke-miterlimit:10;}
</style>
<g id="Layer_2">
</g>
<g id="Layer_1">
	<path class="st0" d="M142.7,143.3l254.9,42.8c2.7,0.4,3.8,3.6,2.1,5.7l-168.3,204L138.8,148C137.9,145.4,140,142.9,142.7,143.3z"/>
	<g>
		<defs>
			<path id="SVGID_1_" d="M0,0v560h560V0H0z M399.7,191.7l-168.3,204L138.8,148c-0.9-2.5,1.2-5.1,3.8-4.7l254.9,42.8
				C400.2,186.5,401.4,189.6,399.7,191.7z"/>
		</defs>
		<clipPath id="SVGID_2_">
			<use xlink:href="#SVGID_1_"  style="overflow:visible;"/>
		</clipPath>
		<g class="st1">
			<defs>
				<path id="SVGID_3_" d="M0,0v560h560V0H0z M211.8,513.7l-61.9-165.7l55.4-22l1.1,2.8l111.3-37.8l59.3-71.8l41.1-3.5l7.8,38.6
					L211.8,513.7z"/>
			</defs>
			<clipPath id="SVGID_4_">
				<use xlink:href="#SVGID_3_"  style="overflow:visible;"/>
			</clipPath>
			<path class="st2" d="M56.3,71.2l446.9,75c4.6,0.8,6.7,6.3,3.7,9.9L218.5,505.6c-3,3.6-8.8,2.7-10.5-1.8L49.6,79.3
				C47.9,74.9,51.7,70.4,56.3,71.2z"/>
		</g>
		<polygon class="st3" points="418.1,215.7 377,219.2 317.7,291.1 206.4,328.9 205.3,326.1 149.9,348.1 211.8,513.7 425.8,254.3 		
			"/>
	</g>
</g>
</svg>